<svg xmlns="http://www.w3.org/2000/svg" width="178" height="24" viewBox="0 0 178 24" fill="none">
<path d="M5.54463 2.62005C7.17593 1.10889 9.30669 0.353027 11.9375 0.353027C12.9814 0.353027 13.9598 0.489293 14.873 0.760713C15.7863 1.03269 16.5905 1.4515 17.2869 2.01658C17.9827 2.58223 18.5316 3.29971 18.9337 4.16903C19.3359 5.03891 19.5372 6.06062 19.5372 7.23474C19.5372 8.34377 19.2975 9.33824 18.8197 10.2192C18.3414 11.0997 17.7212 11.8939 16.9604 12.6003C16.199 13.3072 15.3346 13.954 14.3674 14.5408C13.3997 15.1282 12.4375 15.6988 11.4808 16.2533C10.5236 16.8078 9.61037 17.3574 8.74104 17.9002C7.87117 18.4441 7.14256 19.0309 6.55578 19.6616H17.8086L16.8953 23.6412H0C0.0873215 22.2279 0.40268 20.9993 0.946075 19.9553C1.48947 18.9113 2.18526 17.9931 3.03345 17.1994C3.88163 16.4057 4.83828 15.6938 5.90393 15.0631C6.96903 14.4329 8.05638 13.8239 9.16541 13.2366C9.7305 12.9106 10.3445 12.5736 11.0081 12.2254C11.671 11.8778 12.2906 11.4807 12.8674 11.0352C13.4431 10.5897 13.9275 10.0841 14.319 9.51844C14.7106 8.95336 14.9064 8.29038 14.9064 7.52896C14.9064 6.37654 14.5638 5.55561 13.8791 5.06616C13.1944 4.57672 12.3624 4.33255 11.384 4.33255C10.7533 4.33255 10.1821 4.45769 9.67155 4.70742C9.16041 4.9577 8.72547 5.30032 8.36673 5.7347C8.00799 6.17019 7.72489 6.66965 7.51854 7.23529C7.31164 7.80094 7.19762 8.39884 7.17593 9.029H2.7726C2.98951 6.26808 3.91389 4.13121 5.54519 2.62005H5.54463Z" fill="white"/>
<path d="M20.0479 11.8482C20.2403 10.7169 20.5229 9.60621 20.8966 8.51719C21.2698 7.42818 21.7504 6.39256 22.3377 5.41033C22.9245 4.42866 23.608 3.56879 24.3872 2.83185C25.1665 2.09545 26.0525 1.51368 27.0458 1.08653C28.0386 0.659933 29.1326 0.445801 30.329 0.445801C31.5888 0.445801 32.6883 0.653815 33.6277 1.0704C34.5671 1.48698 35.3464 2.06876 35.966 2.81572C36.585 3.56323 37.0494 4.4548 37.3592 5.48987C37.6685 6.52604 37.8236 7.67346 37.8236 8.93267C37.8236 10.0217 37.7274 11.148 37.5355 12.3115C37.3431 13.4756 37.0494 14.6013 36.6545 15.6903C36.2591 16.7794 35.7579 17.815 35.1495 18.7972C34.541 19.7794 33.8308 20.6337 33.0198 21.3596C32.2084 22.0859 31.2901 22.6622 30.2656 23.0893C29.2405 23.5159 28.0981 23.73 26.8384 23.73C25.5786 23.73 24.4629 23.5003 23.5552 23.0415C22.6475 22.5826 21.9161 21.958 21.361 21.1677C20.8054 20.3779 20.3999 19.4652 20.1441 18.429C19.8877 17.3934 19.7598 16.2994 19.7598 15.1458C19.7598 14.0785 19.856 12.9789 20.0479 11.8471V11.8482ZM24.4195 17.5975C24.5157 18.0781 24.6809 18.4941 24.9162 18.8467C25.1509 19.1988 25.4713 19.4824 25.8773 19.6955C26.2827 19.909 26.795 20.0158 27.4146 20.0158C28.1832 20.0158 28.8607 19.7972 29.4486 19.3595C30.0353 18.9224 30.5426 18.3506 30.9697 17.6459C31.3963 16.9412 31.7595 16.1514 32.0587 15.276C32.3574 14.4005 32.5977 13.5257 32.7796 12.6497C32.9609 11.7742 33.0888 10.9472 33.1639 10.1674C33.2384 9.38818 33.2762 8.74189 33.2762 8.22965C33.2762 7.67457 33.2173 7.15175 33.0999 6.66008C32.9826 6.16897 32.7901 5.74237 32.5232 5.37918C32.2562 5.01655 31.9147 4.72789 31.4981 4.51431C31.0815 4.30129 30.5854 4.19395 30.0086 4.19395C29.2611 4.19395 28.5993 4.41309 28.023 4.85025C27.4463 5.28797 26.9446 5.85917 26.5174 6.56386C26.0903 7.26855 25.7327 8.06446 25.4446 8.94991C25.1565 9.83592 24.9267 10.7169 24.756 11.5924C24.5847 12.4684 24.4623 13.301 24.3878 14.0908C24.3127 14.8811 24.2755 15.543 24.2755 16.0763C24.2755 16.6097 24.3233 17.1175 24.4195 17.5975Z" fill="white"/>
<path d="M70.9561 5.46049C70.2131 4.75969 69.2453 4.40873 68.0523 4.40873C66.7964 4.40873 65.7029 4.69684 64.7719 5.27194C63.8403 5.84759 63.0766 6.5901 62.4804 7.50058C61.8841 8.41106 61.4392 9.4261 61.1461 10.5457C60.853 11.6653 60.7067 12.7588 60.7067 13.8261C60.7067 14.6003 60.8057 15.3328 61.0048 16.0236C61.2034 16.7144 61.5071 17.3262 61.9153 17.8601C62.3235 18.3941 62.8464 18.8173 63.4849 19.1316C64.1228 19.4453 64.892 19.6027 65.7919 19.6027C66.4616 19.6027 67.0945 19.4825 67.6913 19.2417C68.2875 19.0014 68.8159 18.6766 69.2764 18.2684C69.7364 17.8601 70.1241 17.3846 70.4378 16.8401C70.7514 16.2961 70.9606 15.731 71.0657 15.1448H75.9941C75.4918 16.7144 74.9 18.0437 74.2204 19.1316C73.5402 20.22 72.7765 21.1044 71.9289 21.784C71.0813 22.4643 70.1396 22.9565 69.1035 23.2596C68.0673 23.5627 66.9421 23.7146 65.7291 23.7146C62.5477 23.7146 60.0943 22.8669 58.3679 21.1717C56.6415 19.4764 55.7783 17.0281 55.7783 13.8261C55.7783 12.0051 56.0609 10.2787 56.6259 8.64633C57.191 7.01392 58.002 5.57562 59.0587 4.33031C60.1149 3.08556 61.4025 2.09666 62.9198 1.36361C64.4371 0.631108 66.1373 0.265137 68.0206 0.265137C69.3182 0.265137 70.5212 0.443117 71.6308 0.798521C72.7398 1.15448 73.697 1.68286 74.5029 2.38366C75.3083 3.08501 75.9312 3.95322 76.3706 4.98884C76.81 6.02502 77.0191 7.22304 76.9985 8.58292H72.0702C72.0702 7.20191 71.6986 6.16073 70.9556 5.45937L70.9561 5.46049Z" fill="white"/>
<path d="M38.4307 0.713379L42.8824 23.2228H48.2218L43.4475 0.713379H38.4307Z" fill="white"/>
<path d="M53.4353 0.713379H58.8375L49.2055 19.6004L47.4785 12.4706L53.4353 0.713379Z" fill="white"/>
<path d="M160.634 18.9768H164.525C165.811 18.9768 166.947 18.7411 167.933 18.2695C168.94 17.798 169.776 17.155 170.44 16.3405C171.126 15.526 171.641 14.5829 171.984 13.5112C172.348 12.4395 172.53 11.2928 172.53 10.0711C172.53 9.23518 172.434 8.485 172.241 7.82055C172.069 7.13467 171.78 6.54524 171.373 6.05226C170.966 5.55928 170.44 5.18419 169.797 4.92699C169.176 4.64835 168.415 4.50903 167.515 4.50903H163.721L160.634 18.9768ZM159.541 0.265137H167.836C171.073 0.265137 173.505 1.04747 175.134 2.61214C176.763 4.15537 177.578 6.35233 177.578 9.20303C177.578 11.1964 177.299 13.0504 176.742 14.7651C176.185 16.4798 175.349 17.9694 174.234 19.234C173.141 20.4772 171.759 21.4524 170.087 22.1598C168.436 22.8671 166.507 23.2207 164.3 23.2207H154.719L159.541 0.265137Z" fill="white"/>
<path d="M135.711 0.265137H140.92L147.157 16.5977H147.221L150.501 0.265137H155.13L150.276 23.2207H145.228L138.926 7.11323H138.862L135.583 23.2207H130.889L135.711 0.265137Z" fill="white"/>
<path d="M128.471 13.6077C128.128 15.2581 127.689 16.7156 127.153 17.9802C126.639 19.2448 125.953 20.3057 125.095 21.1631C124.238 21.999 123.188 22.642 121.945 23.0921C120.701 23.5208 119.19 23.7351 117.411 23.7351C116.297 23.7351 115.193 23.6173 114.1 23.3815C113.028 23.1457 112.064 22.7706 111.206 22.2562C110.37 21.7204 109.684 21.0238 109.149 20.1664C108.634 19.2876 108.377 18.2159 108.377 16.9513C108.377 16.3726 108.431 15.8046 108.538 15.2474C108.645 14.6686 108.752 14.1006 108.859 13.5434L111.656 0.265137H116.704L113.907 13.5434C113.864 13.7363 113.81 13.9613 113.746 14.2185C113.703 14.4543 113.65 14.7115 113.585 14.9901C113.542 15.2688 113.5 15.5367 113.457 15.7939C113.435 16.0297 113.425 16.244 113.425 16.4369C113.425 16.7156 113.478 17.0371 113.585 17.4015C113.714 17.7658 113.939 18.1088 114.261 18.4303C114.582 18.7303 115.021 18.9876 115.579 19.2019C116.136 19.4162 116.854 19.5234 117.733 19.5234C118.762 19.5234 119.598 19.3948 120.241 19.1376C120.884 18.8589 121.398 18.4839 121.784 18.0123C122.191 17.5193 122.502 16.9192 122.716 16.2119C122.952 15.5046 123.166 14.7222 123.359 13.8649L126.221 0.265137H131.268L128.471 13.6077Z" fill="white"/>
<path d="M92.8226 0.265137H109.155L108.223 4.50903H96.97L95.8448 9.81389H105.683L104.847 13.7363H95.041L93.0155 23.2207H88L92.8226 0.265137Z" fill="white"/>
</svg>
